<?xml version="1.0" encoding="utf-8"?>
<!-- Generator: Adobe Illustrator 18.1.1, SVG Export Plug-In . SVG Version: 6.00 Build 0)  -->
<svg version="1.1" id="Layer_1" xmlns="http://www.w3.org/2000/svg" xmlns:xlink="http://www.w3.org/1999/xlink" x="0px" y="0px" viewBox="0 0 185.1 146" enable-background="new 0 0 185.1 146" xml:space="preserve">	 viewBox="0 0 612 792" enable-background="new 0 0 612 792" xml:space="preserve">
<g id="Layer_1">
</g>
<g id="Layer_2">
	<g>
		<g>
			<path fill="#231F20" d="M172,188.1c0,48.6,0,97.1,0,145.7c0,48.3,1,96.5,2.5,144.8c0.8,27.1,1.5,54.1,1.6,81.2
				c0,20.9,18.4,41,40,40c21.6-1,40-17.6,40-40c-0.1-48.2-2.3-96.4-3.4-144.5c-1.1-48.4-0.6-96.9-0.6-145.3c0-27.3,0-54.5,0-81.8
				c0-20.9-18.4-41-40-40C190.3,149.1,172,165.7,172,188.1L172,188.1z"/>
		</g>
	</g>
	<g>
		<g>
			<path fill="#231F20" d="M194.2,218.6c1.6-0.6,3-1,4.7-1.3c-3.5,0.5-7.1,1-10.6,1.4c8.2-0.8,16.6,0,24.9-0.3
				c9.3-0.4,18.6-0.9,27.9-1.1c17.1-0.3,34.2,0.3,51.1,2.6c-3.5-0.5-7.1-1-10.6-1.4c16,2.2,31.6,6,46.5,12.2c-3.2-1.3-6.4-2.7-9.6-4
				c11.2,4.9,22.9,9.1,32.8,16.5c-2.7-2.1-5.4-4.2-8.1-6.3c3.1,2.4,5.8,5.1,8.2,8.1c-2.1-2.7-4.2-5.4-6.3-8.1
				c4,5.4,6.7,11.5,9.3,17.6c-1.3-3.2-2.7-6.4-4-9.6c4.4,10.4,9,20.6,13.5,30.9c-1.3-3.2-2.7-6.4-4-9.6c5,11.9,7.9,24.5,9.7,37.3
				c-0.5-3.5-1-7.1-1.4-10.6c1.1,8.7,1.6,17.5,0.6,26.3c0.5-3.5,1-7.1,1.4-10.6c-0.9,6.5-2.6,12.7-5.1,18.8c1.3-3.2,2.7-6.4,4-9.6
				c-2.4,5.5-5.4,10.6-9,15.4c2.1-2.7,4.2-5.4,6.3-8.1c-4,5-8.6,9.5-13.7,13.4c2.7-2.1,5.4-4.2,8.1-6.3c-3.1,2.3-6.2,4.2-9.7,5.8
				c3.2-1.3,6.4-2.7,9.6-4c-8.9,3.7-18.4,4.6-27.8,6.3c-10.2,1.9-20.4,4.1-30.6,6c-20.5,4-41.1,7.7-61.7,11.1
				c-9.3,1.5-19.3,10.6-23.9,18.4c-5,8.6-7.1,21.2-4,30.8c3.1,9.7,9.1,19,18.4,23.9c3.2,1.3,6.4,2.7,9.6,4c7.1,1.9,14.2,1.9,21.3,0
				c20-3.3,39.9-6.9,59.8-10.7c10.3-2,20.5-4.1,30.8-6.1c9-1.8,18.4-2.4,27.1-5.7c23.6-8.8,44.6-26.2,56.4-48.8
				c10.9-20.9,15.5-44.4,12.7-67.8c-1.6-13.4-3.4-27.2-7.5-40.1c-4.2-13.2-10.7-25.6-16.1-38.3c1.3,3.2,2.7,6.4,4,9.6
				c-4-9.4-7.5-19.9-13.4-28.5c-7.6-11-15.8-18.9-26.8-26.4c-5.5-3.7-11.5-6.5-17.5-9.1c-9.2-4-18.4-8.1-27.7-11.7
				c-18.2-6.9-37.4-9.8-56.6-12c-16.1-1.8-32.5-2.3-48.7-1.8c-9.6,0.3-19.2,0.9-28.8,1.2c-12,0.4-24.9-1.5-36.4,2.9
				c-10,3.9-18.3,8.8-23.9,18.4c-5,8.6-7.1,21.2-4,30.8c3.1,9.7,9.1,19,18.4,23.9C172.4,219.3,184.3,222.4,194.2,218.6L194.2,218.6z
				"/>
		</g>
	</g>
	<g>
		<g>
			<path fill="#231F20" d="M243,456.5c4.2-0.1,8.4,0.2,12.6,0.7c-3.5-0.5-7.1-1-10.6-1.4c18.6,2.6,36.9,8.4,54.2,15.6
				c-3.2-1.3-6.4-2.7-9.6-4c9.5,4,18.9,8.4,28.4,12.7c8.8,4,18.1,7.3,25.9,12.9c-2.7-2.1-5.4-4.2-8.1-6.3
				c4.9,3.9,10.6,8.2,14.5,13.1c-2.1-2.7-4.2-5.4-6.3-8.1c0.8,1.1,1.4,2.2,1.9,3.4c-1.3-3.2-2.7-6.4-4-9.6
				c4.1,9.8,8.7,20.2,10.5,30.7c-0.5-3.5-1-7.1-1.4-10.6c0.1,1.7,0.1,3.1-0.1,4.8c0.5-3.5,1-7.1,1.4-10.6c-0.9,5-2.2,9.9-4.2,14.6
				c1.3-3.2,2.7-6.4,4-9.6c-2.4,5.3-5.4,10.2-8.9,14.8c2.1-2.7,4.2-5.4,6.3-8.1c-3.1,3.9-6.5,7.6-10.5,10.7c2.7-2.1,5.4-4.2,8.1-6.3
				c-10.6,8.1-23.4,13.3-35.6,18.5c3.2-1.3,6.4-2.7,9.6-4c-33.2,13.8-67.8,22.7-102.3,32.7c-9.7,2.8-18.8,9.6-23.9,18.4
				c-5,8.6-7.1,21.2-4,30.8c6.6,20.4,27.7,34.1,49.2,27.9c27.4-7.9,55.2-14.7,82-24.7c15.8-5.9,31.4-12.3,46.6-19.5
				c13.6-6.5,26.6-14.9,36.3-26.6c11.8-14.2,21-29.9,24.4-48.3c2.2-11.7,1.7-22.3-1.9-33.7c-2.1-6.5-4.4-12.8-6.9-19.1
				c-4.2-10.6-8-19.9-16.5-27.9c-7-6.5-14.8-13.3-22.7-18.4c-10.6-6.8-23.3-11.1-34.8-16.3c-16.4-7.5-33-15.1-50.3-20.1
				c-17.1-5-35.5-9.4-53.4-9c-10.4,0.2-20.9,4.3-28.3,11.7c-6.9,6.9-12.2,18.3-11.7,28.3C204,437.8,220.6,457,243,456.5L243,456.5z"
				/>
		</g>
	</g>
</g>
</svg>
