<?xml version="1.0" encoding="utf-8"?>
<!-- Generator: Adobe Illustrator 18.1.1, SVG Export Plug-In . SVG Version: 6.00 Build 0)  -->
<svg version="1.1" id="Layer_1" xmlns="http://www.w3.org/2000/svg" xmlns:xlink="http://www.w3.org/1999/xlink" x="0px" y="0px"
	 viewBox="0 0 612 792" enable-background="new 0 0 612 792" xml:space="preserve">
<g>
	<rect x="40.7" y="212.5" fill="none" stroke="#1C75BC" stroke-width="4" stroke-miterlimit="10" width="535.6" height="372"/>
	<rect x="37.4" y="190.3" fill="#FFFFFF" stroke="#1C75BC" stroke-width="4" stroke-miterlimit="10" width="211.6" height="411.3"/>
	<line fill="none" stroke="#1C75BC" stroke-width="4" stroke-miterlimit="10" x1="72.7" y1="498.5" x2="213.9" y2="498.5"/>
	<line fill="none" stroke="#1C75BC" stroke-width="4" stroke-miterlimit="10" x1="72.7" y1="540.5" x2="213.9" y2="540.5"/>
	<line fill="none" stroke="#1C75BC" stroke-width="4" stroke-miterlimit="10" x1="72.7" y1="421.1" x2="213.9" y2="421.1"/>
	<line fill="none" stroke="#1C75BC" stroke-width="4" stroke-miterlimit="10" x1="72.7" y1="463.1" x2="213.9" y2="463.1"/>
	<line fill="none" stroke="#1C75BC" stroke-width="4" stroke-miterlimit="10" x1="72.7" y1="345.7" x2="213.9" y2="345.7"/>
	<line fill="none" stroke="#1C75BC" stroke-width="4" stroke-miterlimit="10" x1="72.7" y1="387.7" x2="213.9" y2="387.7"/>
	<line fill="none" stroke="#1C75BC" stroke-width="4" stroke-miterlimit="10" x1="72.7" y1="266.4" x2="213.9" y2="266.4"/>
	<line fill="none" stroke="#1C75BC" stroke-width="4" stroke-miterlimit="10" x1="72.7" y1="308.1" x2="213.9" y2="308.1"/>
	<rect x="277.1" y="263.1" fill="#1C75BC" stroke="#1C75BC" stroke-width="4" stroke-miterlimit="10" width="268.8" height="90.9"/>
	<line fill="none" stroke="#1C75BC" stroke-width="4" stroke-miterlimit="10" x1="270.5" y1="388.1" x2="546.2" y2="388.1"/>
	<line fill="none" stroke="#1C75BC" stroke-width="4" stroke-miterlimit="10" x1="270.5" y1="447.6" x2="546.2" y2="447.6"/>
	<line fill="none" stroke="#1C75BC" stroke-width="4" stroke-miterlimit="10" x1="270.5" y1="510.4" x2="546.2" y2="510.4"/>
</g>
<circle fill="#FFFFFF" stroke="#1E75BB" stroke-width="7" stroke-miterlimit="10" cx="270.5" cy="382.5" r="222"/>
<path fill="#F1F1F2" d="M411.2,572.3c-10.9-2.9-22-5.2-33.2-7.1c-22.1-3.7-41.1-12.3-53.5-32c-1.7-2.7-2.9-5.7-5-9.7
	c3.2,0,4.9,0,6.7,0c21.2,0,42.3-0.5,63.5,0.2c17.5,0.6,27.2-11.5,27.1-27.3c-0.3-77.5-0.3-155,0-232.5c0.1-17.2-11-27.3-27.1-27.2
	c-79.6,0.5-159.3,0.3-239,0.3c-1.7,0-3.3,0-5,0.1c-10.3,0.5-19.1,8-21.1,18.1c-0.6,3.2-0.7,6.6-0.7,9.9c0,27,0.2,54,0.1,81
	c0,49.7-0.1,99.3-0.1,149c0,19.7,8.6,28.2,28.4,28.2c51.5,0,103,0.2,154.5,0c4.7,0,6.9,1.4,8,5.9c2.7,10.3,9.3,17.9,17.1,24.6
	c8.7,7.5,18.7,12.9,29.8,15.6c10,2.4,20.2,4.1,30.3,6.1"/>
<g>
	<path fill="#26A9E0" d="M270.3,306.4c-36.3,0-72.6,0-109,0.1c-3.6,0-4.5-1.4-4.5-4.7c0.1-11.2,0.2-22.3,0-33.5
		c-0.1-3.5,1.3-4.6,4.7-4.6c36.8,0.2,73.6,0.4,110.5,0.4c34.7,0.1,69.3,0,104,0c7.6,0,7.6,0,7.6,7.7c0,9.5-0.2,19,0.1,28.5
		c0.1,4.6-1.2,6-5.9,6c-34-0.2-68-0.1-102-0.1c-1.8,0-3.7,0-5.5,0C270.3,306.2,270.3,306.3,270.3,306.4z"/>
	<path fill="#26A9E0" d="M329.9,427.3c-15.5,0-31-0.1-46.5,0.1c-4.6,0.1-6.4-1.1-6.4-6.1c0.2-22.1,0.2-44.3,0-66.4
		c0-4.9,1.6-6.2,6.3-6.2c31.3,0.2,62.6,0.2,93.9,0c4.5,0,6.2,1.2,6.2,5.9c-0.2,22.3-0.2,44.6,0,66.9c0,4.6-1.6,6-6.1,5.9
		C361.6,427.1,345.7,427.3,329.9,427.3z"/>
	<path fill="#26A9E0" d="M383.1,328.6c-1.7,0.1-3.5,0.3-5.3,0.3c-71.5,0.1-142.9,0.2-214.4,0.2c-2.1,0-5.9-0.4-6.1-1.4
		c-0.8-2.9-0.4-6.2-0.2-9.3c0-0.5,1.5-1.1,2.4-1.3c1.8-0.2,3.7-0.1,5.5-0.1c69.8,0.1,139.6,0.1,209.4,0.2
		C385.2,317.2,385.2,317.1,383.1,328.6z"/>
	<path fill="#26A9E0" d="M210.4,358.4c-16,0-32-0.1-47.9,0c-3.6,0-5.6-0.7-5.5-4.9c0.1-3.6,1.2-5,4.9-5c14,0.1,28,0.1,42,0.1
		c18.1,0,36.3,0.1,54.4,0c3.6,0,5.6,0.7,5.5,5c-0.1,3.7-1.3,5-5,5c-13.6-0.1-27.3,0-41,0C215.4,358.4,212.9,358.4,210.4,358.4z"/>
	<path fill="#26A9E0" d="M210.4,381.4c-15.8,0-31.6,0-47.4,0c-3.5,0-6.1-0.2-6-4.9c0-4.7,2.5-4.9,6.1-4.9c31.8,0.1,63.5,0.1,95.3,0
		c3.6,0,5.6,0.8,5.5,5c-0.1,3.7-1.4,5-5,4.9c-13.3-0.1-26.6,0-39.9,0C216.1,381.4,213.3,381.4,210.4,381.4z"/>
	<path fill="#26A9E0" d="M210.2,404.5c-15.8,0-31.6-0.1-47.4,0.1c-3.8,0-5.8-0.9-5.7-5.3c0.1-4.5,2.5-4.7,5.8-4.6
		c31.8,0,63.6,0.1,95.3,0c3.4,0,5.7,0.3,5.7,4.7c0.1,4.5-2.1,5.2-5.8,5.2C242.1,404.4,226.1,404.5,210.2,404.5z"/>
	<path fill="#26A9E0" d="M210.1,427.5c-15.8,0-31.6-0.1-47.4,0.1c-3.8,0-5.8-0.9-5.7-5.3c0.1-4.5,2.5-4.7,5.8-4.6
		c31.8,0,63.5,0,95.3,0c3.4,0,5.7,0.4,5.7,4.7c0.1,4.5-2.1,5.2-5.8,5.2C242.1,427.4,226.1,427.5,210.1,427.5z"/>
	<path fill="#26A9E0" d="M210.3,450.6c-15.8,0-31.6,0-47.4,0c-3.6,0-6-0.5-5.9-5.1c0-4.8,2.7-4.8,6.2-4.8c31.6,0,63.2,0.1,94.8,0
		c3.6,0,6,0.4,5.9,5.1c0,4.8-2.8,4.9-6.2,4.9C241.9,450.5,226.1,450.6,210.3,450.6z"/>
	<path fill="#26A9E0" d="M210.4,473.6c-15.7,0-31.3,0-47,0c-3.5,0-6.5,0.1-6.5-5.1c0.1-4.8,2.8-4.8,6.2-4.8c31.5,0,63,0,94.5,0
		c3.4,0,6.3-0.1,6.2,4.8c0,4.1-1.8,5.1-5.4,5.1C242.4,473.5,226.4,473.6,210.4,473.6z"/>
	<path fill="#26A9E0" d="M210.9,496.6c-16,0-32,0-48,0c-3.7,0-5.9-0.7-5.9-5.2c0-4.4,2.4-4.8,5.8-4.8c31.8,0,63.6,0,95.5,0
		c3.5,0,5.6,0.6,5.6,4.9c0,4.2-1.9,5.1-5.5,5.1C242.5,496.6,226.7,496.6,210.9,496.6z"/>
	<path fill="#26A9E0" d="M329.9,450c-15.6,0-31.3,0-46.9,0c-2.5,0-5.3,0.3-5.6-3.3c-0.2-2.9,0.5-5,3.9-5c1.5,0,3-0.1,4.5-0.1
		c29.4,0,58.9,0,88.3,0c0.8,0,1.7,0,2.5,0c2.9,0,5.9,0,5.9,4.2c0,4.2-2.8,4.2-5.8,4.2c-13.3,0-26.6,0-39.9,0
		C334.6,450,332.3,450,329.9,450z"/>
	<path fill="#26A9E0" d="M329.8,473c-15.5,0-30.9,0-46.4,0c-2.9,0-5.9,0.3-6-4c-0.1-4.6,3.1-4.4,6.1-4.4c30.9,0,61.9,0,92.8,0
		c2.5,0,5.7-0.6,6.2,3.3c0.5,4.1-1.7,5.1-5.3,5.1C361.4,473,345.6,473.1,329.8,473C329.8,473,329.8,473,329.8,473z"/>
	<path fill="#26A9E0" d="M329.8,496.1c-15.5,0-30.9,0-46.4,0c-2.9,0-5.9,0.3-6-4c-0.1-4.6,3-4.4,6.1-4.4c30.9,0,61.9,0,92.8,0.1
		c1.9,0,4.7,0.6,5.7,1.9c2.4,3.1-0.2,6.4-4.8,6.4C361.4,496.1,345.6,496.1,329.8,496.1z"/>
</g>
</svg>
