<?xml version="1.0" encoding="utf-8"?>
<!-- Generator: Adobe Illustrator 18.1.1, SVG Export Plug-In . SVG Version: 6.00 Build 0)  -->
<svg version="1.1" id="Layer_1" xmlns="http://www.w3.org/2000/svg" xmlns:xlink="http://www.w3.org/1999/xlink" x="0px" y="0px"
	 viewBox="0 0 448.5 199.5" enable-background="new 0 0 448.5 199.5" xml:space="preserve">
<rect x="467.2" y="-144.1" fill="none" stroke="#1C75BC" stroke-width="4" stroke-miterlimit="10" width="162" height="112.5"/>
<g>
	<g>
		<path fill="#2E3192" d="M25.6-35c0-31.7,0-63.4,0-95c0-6.4-10-6.4-10,0c0,31.7,0,63.4,0,95C15.6-28.6,25.6-28.6,25.6-35L25.6-35z"
			/>
	</g>
</g>
<g>
	<g>
		<path fill="#2E3192" d="M21.2-126.4c11.7,0,23.4,0,35.1,0c6.4,0,6.4-10,0-10c-11.7,0-23.4,0-35.1,0
			C14.8-136.4,14.8-126.4,21.2-126.4L21.2-126.4z"/>
	</g>
</g>
<g>
	<g>
		<path fill="#2E3192" d="M51.6-131.1c0,27.6,0,55.2,0,82.8c0,6.4,10,6.4,10,0c0-27.6,0-55.2,0-82.8
			C61.6-137.6,51.6-137.6,51.6-131.1L51.6-131.1z"/>
	</g>
</g>
<g>
	<g>
		<path fill="#2E3192" d="M46.1-42c9.3,0,18.7,0,28,0c6.4,0,6.4-10,0-10c-9.3,0-18.7,0-28,0C39.7-52,39.7-42,46.1-42L46.1-42z"/>
	</g>
</g>
<g>
	<g>
		<path fill="#2E3192" d="M75.5-46c6.4,0,6.4-10,0-10C69.1-56,69.1-46,75.5-46L75.5-46z"/>
	</g>
</g>
<g>
	<g>
		<path fill="#2E3192" d="M80.5-48.3c0-24,0-47.9,0-71.9c0-6.4-10-6.4-10,0c0,24,0,47.9,0,71.9C70.5-41.9,80.5-41.9,80.5-48.3
			L80.5-48.3z"/>
	</g>
</g>
<g>
	<g>
		<path fill="#2E3192" d="M57.2-140.6c10.4,0,20.7,0,31.1,0c6.4,0,6.4-10,0-10c-10.4,0-20.7,0-31.1,0
			C50.8-150.6,50.8-140.6,57.2-140.6L57.2-140.6z"/>
	</g>
</g>
<g>
	<g>
		<path fill="#2E3192" d="M93.3-44.3c0-32.9,0-65.8,0-98.6c0-6.4-10-6.4-10,0c0,32.9,0,65.8,0,98.6C83.3-37.8,93.3-37.8,93.3-44.3
			L93.3-44.3z"/>
	</g>
</g>
<g>
	<g>
		<path fill="#2E3192" d="M105.5-45.6c0-32.4,0-64.9,0-97.3c0-6.4-10-6.4-10,0c0,32.4,0,64.9,0,97.3
			C95.5-39.2,105.5-39.2,105.5-45.6L105.5-45.6z"/>
	</g>
</g>
<g>
	<g>
		<path fill="#2E3192" d="M102.5-137.9c6.4,0,6.4-10,0-10C96.1-147.9,96.1-137.9,102.5-137.9L102.5-137.9z"/>
	</g>
</g>
<g>
	<g>
		<path fill="#2E3192" d="M102.5-137.9c15.2,0,30.4,0,45.6,0c6.4,0,6.4-10,0-10c-15.2,0-30.4,0-45.6,0
			C96.1-147.9,96.1-137.9,102.5-137.9L102.5-137.9z"/>
	</g>
</g>
<g>
	<g>
		<path fill="#2E3192" d="M143.5-141.6c0,33.1,0,66.2,0,99.2c0,6.4,10,6.4,10,0c0-33.1,0-66.2,0-99.2
			C153.5-148,143.5-148,143.5-141.6L143.5-141.6z"/>
	</g>
</g>
<g>
	<g>
		<path fill="#2E3192" d="M144.4-97.9c-9.5,0-18.9,0-28.4,0c-6.4,0-6.4,10,0,10c9.5,0,18.9,0,28.4,0
			C150.9-87.9,150.9-97.9,144.4-97.9L144.4-97.9z"/>
	</g>
</g>
<g>
	<g>
		<path fill="#2E3192" d="M109.7-92.9c0,17,0,34,0,51c0,6.4,10,6.4,10,0c0-0.3,0-0.6,0-1c0-6.4-10-6.4-10,0c0,0.3,0,0.6,0,1
			c0,6.4,10,6.4,10,0c0-17,0-34,0-51C119.7-99.3,109.7-99.4,109.7-92.9L109.7-92.9z"/>
	</g>
</g>
<g>
	<g>
		<path fill="#2E3192" d="M115.4-36.9c10.5,0,20.9,0,31.4,0c6.4,0,6.4-10,0-10c-10.5,0-20.9,0-31.4,0C109-46.9,109-36.9,115.4-36.9
			L115.4-36.9z"/>
	</g>
</g>
<g>
	<g>
		<path fill="#2E3192" d="M171.3-44.3c0-28.8,0-57.7,0-86.5c0-6.4-10-6.4-10,0c0,28.8,0,57.7,0,86.5
			C161.3-37.8,171.3-37.8,171.3-44.3L171.3-44.3z"/>
	</g>
</g>
<g>
	<g>
		<path fill="#2E3192" d="M166-126.1c10.4,0,20.7,0,31.1,0c6.4,0,6.4-10,0-10c-10.4,0-20.7,0-31.1,0
			C159.6-136.1,159.6-126.1,166-126.1L166-126.1z"/>
	</g>
</g>
<g>
	<g>
		<path fill="#2E3192" d="M189-125.8c7.2,0,14.4,0,21.6,0c6.4,0,6.4-10,0-10c-7.2,0-14.4,0-21.6,0
			C182.6-135.8,182.6-125.8,189-125.8L189-125.8z"/>
	</g>
</g>
<g>
	<g>
		<path fill="#2E3192" d="M207-130.8c0,30.6,0,61.3,0,91.9c0,6.4,10,6.4,10,0c0-30.6,0-61.3,0-91.9C217-137.2,207-137.2,207-130.8
			L207-130.8z"/>
	</g>
</g>
<g>
	<g>
		<path fill="#2E3192" d="M211.7-43.2c-7.6,0-15.1,0-22.7,0c-6.4,0-6.4,10,0,10c7.6,0,15.1,0,22.7,0
			C218.1-33.2,218.1-43.2,211.7-43.2L211.7-43.2z"/>
	</g>
</g>
<g>
	<g>
		<path fill="#2E3192" d="M194-40.2c0-30.2,0-60.4,0-90.5c0-6.4-10-6.4-10,0c0,30.2,0,60.4,0,90.5C184-33.8,194-33.8,194-40.2
			L194-40.2z"/>
	</g>
</g>
<g>
	<g>
		<path fill="#2E3192" d="M194.4-125.8c14,0,27.9,0,41.9,0c6.4,0,6.4-10,0-10c-14,0-27.9,0-41.9,0C188-135.8,188-125.8,194.4-125.8
			L194.4-125.8z"/>
	</g>
</g>
<g>
	<g>
		<path fill="#2E3192" d="M233.6-125.8c5.7,0,11.5,0,17.2,0c6.4,0,6.4-10,0-10c-5.7,0-11.5,0-17.2,0
			C227.2-135.8,227.2-125.8,233.6-125.8L233.6-125.8z"/>
	</g>
</g>
<g>
	<g>
		<path fill="#2E3192" d="M248.9-130.7c0,27.4,0,54.7,0,82.1c0,6.4,10,6.4,10,0c0-27.4,0-54.7,0-82.1
			C258.9-137.1,248.9-137.1,248.9-130.7L248.9-130.7z"/>
	</g>
</g>
<g>
	<g>
		<path fill="#2E3192" d="M220.5-180.8c0,44.1,0,88.3,0,132.4c0,6.4,10,6.4,10,0c0-44.1,0-88.3,0-132.4
			C230.5-187.2,220.5-187.2,220.5-180.8L220.5-180.8z"/>
	</g>
</g>
<g>
	<g>
		<path fill="#2E3192" d="M228.2-43.3c8.1,0,16.2,0,24.3,0c6.4,0,6.4-10,0-10c-8.1,0-16.2,0-24.3,0
			C221.8-53.3,221.8-43.3,228.2-43.3L228.2-43.3z"/>
	</g>
</g>
<g>
	<g>
		<path fill="#A97C50" d="M277.8-44.3c0-27.8,0-55.7,0-83.5c0-6.4-10-6.4-10,0c0,27.8,0,55.7,0,83.5
			C267.8-37.8,277.8-37.8,277.8-44.3L277.8-44.3z"/>
	</g>
</g>
<g>
	<g>
		<path fill="#A97C50" d="M272.8-123.1c10.8,0,21.6,0,32.4,0c6.4,0,6.4-10,0-10c-10.8,0-21.6,0-32.4,0
			C266.4-133.1,266.4-123.1,272.8-123.1L272.8-123.1z"/>
	</g>
</g>
<g>
	<g>
		<path fill="#A97C50" d="M303.9-122.7c6.8,0,13.5,0,20.3,0c6.4,0,6.4-10,0-10c-6.8,0-13.5,0-20.3,0
			C297.5-132.7,297.4-122.7,303.9-122.7L303.9-122.7z"/>
	</g>
</g>
<g>
	<g>
		<path fill="#A97C50" d="M320.5-126.7c0,17.6,0,35.1,0,52.7c0,6.4,10,6.4,10,0c0-17.6,0-35.1,0-52.7
			C330.5-133.1,320.5-133.1,320.5-126.7L320.5-126.7z"/>
	</g>
</g>
<g>
	<g>
		<path fill="#A97C50" d="M320.5-75.3c0,9.9,0,19.8,0,29.7c0,6.4,10,6.4,10,0c0-9.9,0-19.8,0-29.7C330.5-81.8,320.5-81.8,320.5-75.3
			L320.5-75.3z"/>
	</g>
</g>
<g>
	<g>
		<path fill="#A97C50" d="M322.8-47.9c-8.1,0-16.2,0-24.3,0c-6.4,0-6.4,10,0,10c8.1,0,16.2,0,24.3,0
			C329.2-37.9,329.2-47.9,322.8-47.9L322.8-47.9z"/>
	</g>
</g>
<g>
	<g>
		<path fill="#A97C50" d="M302.1-42.9c0-31.5,0-63.1,0-94.6c-1.7,1.7-3.3,3.3-5,5c15.8,0.1,31.5,0.2,47.3,0.4c-1.7-1.7-3.3-3.3-5-5
			c0,34.6,0,69.1,0,103.7c0,6.4,10,6.4,10,0c0-34.6,0-69.1,0-103.7c0-2.7-2.3-5-5-5c-15.8-0.1-31.5-0.2-47.3-0.4c-2.7,0-5,2.3-5,5
			c0,31.5,0,63.1,0,94.6C292.1-36.5,302.1-36.5,302.1-42.9L302.1-42.9z"/>
	</g>
</g>
<g>
	<g>
		<path fill="#A97C50" d="M344.5-34.5c-39.2-0.1-78.4-3.9-117.6-4c-6.4,0-6.4,10,0,10c39.2,0.1,78.4,3.9,117.6,4
			C350.9-24.4,350.9-34.4,344.5-34.5L344.5-34.5z"/>
	</g>
</g>
<g>
	<g>
		<path fill="#A97C50" d="M222.2-33.1c0.1,4.9,0.9,9.7,1,14.5c0.1,6.4,10.1,6.4,10,0c-0.1-4.9-0.9-9.7-1-14.5
			C232.1-39.5,222.1-39.6,222.2-33.1L222.2-33.1z"/>
	</g>
</g>
<g>
	<g>
		<path fill="#A97C50" d="M230.6-13.2c22.1,0,44.2,0,66.3,0c6.4,0,6.4-10,0-10c-0.5,0-1,0-1.5,0c0,3.3,0,6.7,0,10
			c16.4,0,32.7,0,49.1,0c6.4,0,6.4-10,0-10c-16.4,0-32.7,0-49.1,0c-6.4,0-6.4,10,0,10c0.5,0,1,0,1.5,0c6.4,0,6.4-10,0-10
			c-22.1,0-44.2,0-66.3,0C224.1-23.2,224.1-13.2,230.6-13.2L230.6-13.2z"/>
	</g>
</g>
<g>
	<g>
		<path fill="#A97C50" d="M365.3-45.6c0-28.2,0-56.3,0-84.5c0-6.4-10-6.4-10,0c0,28.2,0,56.3,0,84.5
			C355.3-39.2,365.3-39.2,365.3-45.6L365.3-45.6z"/>
	</g>
</g>
<g>
	<g>
		<path fill="#A97C50" d="M362-125.8c8.8,0,17.6,0,26.4,0c6.4,0,6.4-10,0-10c-8.8,0-17.6,0-26.4,0
			C355.6-135.8,355.5-125.8,362-125.8L362-125.8z"/>
	</g>
</g>
<g>
	<g>
		<path fill="#A97C50" d="M384-130.3c0,26.6,0,53.2,0,79.7c0,6.4,10,6.4,10,0c0-26.6,0-53.2,0-79.7C394-136.8,384-136.8,384-130.3
			L384-130.3z"/>
	</g>
</g>
<g>
	<g>
		<path fill="#A97C50" d="M390.4-109.5c6.3,0,12.6,0,18.9,0c6.4,0,6.4-10,0-10c-6.3,0-12.6,0-18.9,0
			C383.9-119.5,383.9-109.5,390.4-109.5L390.4-109.5z"/>
	</g>
</g>
<g>
	<g>
		<path fill="#A97C50" d="M405.6-114.5c0,22.1,0,44.1,0,66.2c0,6.4,10,6.4,10,0c0-22.1,0-44.1,0-66.2
			C415.6-121,405.6-121,405.6-114.5L405.6-114.5z"/>
	</g>
</g>
<g>
	<g>
		<path fill="#A97C50" d="M410.6-42c8.1,0,16.2,0,24.3,0c6.4,0,6.4-10,0-10c-8.1,0-16.2,0-24.3,0C404.2-52,404.2-42,410.6-42
			L410.6-42z"/>
	</g>
</g>
<g>
	<g>
		<path fill="#A97C50" d="M440-47c0-30.2,0-60.4,0-90.5c0-6.4-10-6.4-10,0c0,30.2,0,60.4,0,90.5C430-40.5,440-40.5,440-47L440-47z"
			/>
	</g>
</g>
<g>
	<g>
		<path fill="#A97C50" d="M405.6-161.8c0,3.6,0,7.2,0,10.8c0,6.4,10,6.4,10,0c0-3.6,0-7.2,0-10.8
			C415.6-168.3,405.6-168.3,405.6-161.8L405.6-161.8z"/>
	</g>
</g>
<g>
	<g>
		<path fill="#A97C50" d="M410.6-145.3c8.1,0,16.2,0,24.3,0c6.4,0,6.4-10,0-10c-8.1,0-16.2,0-24.3,0
			C404.2-155.3,404.2-145.3,410.6-145.3L410.6-145.3z"/>
	</g>
</g>
<g>
	<g>
		<path fill="#A97C50" d="M441.3-150.3c0-7.2,0-14.4,0-21.6c0-6.4-10-6.4-10,0c0,7.2,0,14.4,0,21.6
			C431.3-143.9,441.3-143.9,441.3-150.3L441.3-150.3z"/>
	</g>
</g>
<g>
	<g>
		<path fill="#27AAE1" d="M24,164.2c0-31.7,0-63.4,0-95c0-6.4-10-6.4-10,0c0,31.7,0,63.4,0,95C14,170.7,24,170.7,24,164.2L24,164.2z
			"/>
	</g>
</g>
<g>
	<g>
		<path fill="#27AAE1" d="M19.6,72.8c11.7,0,23.4,0,35.1,0c6.4,0,6.4-10,0-10c-11.7,0-23.4,0-35.1,0C13.2,62.8,13.2,72.8,19.6,72.8
			L19.6,72.8z"/>
	</g>
</g>
<g>
	<g>
		<path fill="#27AAE1" d="M50,68.1c0,27.6,0,55.2,0,82.8c0,6.4,10,6.4,10,0c0-27.6,0-55.2,0-82.8C60,61.7,50,61.7,50,68.1L50,68.1z"
			/>
	</g>
</g>
<g>
	<g>
		<path fill="#27AAE1" d="M44.5,157.3c9.3,0,18.7,0,28,0c6.4,0,6.4-10,0-10c-9.3,0-18.7,0-28,0C38.1,147.3,38.1,157.3,44.5,157.3
			L44.5,157.3z"/>
	</g>
</g>
<g>
	<g>
		<path fill="#27AAE1" d="M73.9,153.2c6.4,0,6.4-10,0-10C67.5,143.2,67.5,153.2,73.9,153.2L73.9,153.2z"/>
	</g>
</g>
<g>
	<g>
		<path fill="#27AAE1" d="M78.9,150.9c0-24,0-47.9,0-71.9c0-6.4-10-6.4-10,0c0,24,0,47.9,0,71.9C68.9,157.4,78.9,157.4,78.9,150.9
			L78.9,150.9z"/>
	</g>
</g>
<g>
	<g>
		<path fill="#27AAE1" d="M55.6,58.6c10.4,0,20.7,0,31.1,0c6.4,0,6.4-10,0-10c-10.4,0-20.7,0-31.1,0C49.2,48.6,49.2,58.6,55.6,58.6
			L55.6,58.6z"/>
	</g>
</g>
<g>
	<g>
		<path fill="#27AAE1" d="M91.7,155c0-32.9,0-65.8,0-98.6c0-6.4-10-6.4-10,0c0,32.9,0,65.8,0,98.6C81.7,161.4,91.7,161.4,91.7,155
			L91.7,155z"/>
	</g>
</g>
<g>
	<g>
		<path fill="#27AAE1" d="M103.9,153.6c0-32.4,0-64.9,0-97.3c0-6.4-10-6.4-10,0c0,32.4,0,64.9,0,97.3
			C93.9,160.1,103.9,160.1,103.9,153.6L103.9,153.6z"/>
	</g>
</g>
<g>
	<g>
		<path fill="#27AAE1" d="M100.9,61.3c6.4,0,6.4-10,0-10C94.5,51.3,94.5,61.3,100.9,61.3L100.9,61.3z"/>
	</g>
</g>
<g>
	<g>
		<path fill="#27AAE1" d="M100.9,61.3c15.2,0,30.4,0,45.6,0c6.4,0,6.4-10,0-10c-15.2,0-30.4,0-45.6,0
			C94.5,51.3,94.5,61.3,100.9,61.3L100.9,61.3z"/>
	</g>
</g>
<g>
	<g>
		<path fill="#27AAE1" d="M141.9,57.7c0,33.1,0,66.2,0,99.2c0,6.4,10,6.4,10,0c0-33.1,0-66.2,0-99.2
			C151.9,51.2,141.9,51.2,141.9,57.7L141.9,57.7z"/>
	</g>
</g>
<g>
	<g>
		<path fill="#27AAE1" d="M142.8,101.3c-9.5,0-18.9,0-28.4,0c-6.4,0-6.4,10,0,10c9.5,0,18.9,0,28.4,0
			C149.3,111.3,149.3,101.3,142.8,101.3L142.8,101.3z"/>
	</g>
</g>
<g>
	<g>
		<path fill="#27AAE1" d="M108.1,106.3c0,17,0,34,0,51c0,6.4,10,6.4,10,0c0-0.3,0-0.6,0-1c0-6.4-10-6.4-10,0c0,0.3,0,0.6,0,1
			c0,6.4,10,6.4,10,0c0-17,0-34,0-51C118.1,99.9,108.1,99.9,108.1,106.3L108.1,106.3z"/>
	</g>
</g>
<g>
	<g>
		<path fill="#27AAE1" d="M113.8,162.4c10.5,0,20.9,0,31.4,0c6.4,0,6.4-10,0-10c-10.5,0-20.9,0-31.4,0
			C107.4,152.4,107.4,162.4,113.8,162.4L113.8,162.4z"/>
	</g>
</g>
<g>
	<g>
		<path fill="#27AAE1" d="M169.7,155c0-28.8,0-57.7,0-86.5c0-6.4-10-6.4-10,0c0,28.8,0,57.7,0,86.5
			C159.7,161.4,169.7,161.4,169.7,155L169.7,155z"/>
	</g>
</g>
<g>
	<g>
		<path fill="#27AAE1" d="M164.5,73.1c10.4,0,20.7,0,31.1,0c6.4,0,6.4-10,0-10c-10.4,0-20.7,0-31.1,0C158,63.1,158,73.1,164.5,73.1
			L164.5,73.1z"/>
	</g>
</g>
<g>
	<g>
		<path fill="#27AAE1" d="M187.4,73.5c7.2,0,14.4,0,21.6,0c6.4,0,6.4-10,0-10c-7.2,0-14.4,0-21.6,0C181,63.5,181,73.5,187.4,73.5
			L187.4,73.5z"/>
	</g>
</g>
<g>
	<g>
		<path fill="#27AAE1" d="M205.4,68.5c0,30.6,0,61.3,0,91.9c0,6.4,10,6.4,10,0c0-30.6,0-61.3,0-91.9C215.4,62.1,205.4,62,205.4,68.5
			L205.4,68.5z"/>
	</g>
</g>
<g>
	<g>
		<path fill="#27AAE1" d="M210.1,156.1c-7.6,0-15.1,0-22.7,0c-6.4,0-6.4,10,0,10c7.6,0,15.1,0,22.7,0
			C216.5,166.1,216.5,156.1,210.1,156.1L210.1,156.1z"/>
	</g>
</g>
<g>
	<g>
		<path fill="#27AAE1" d="M192.4,159c0-30.2,0-60.4,0-90.5c0-6.4-10-6.4-10,0c0,30.2,0,60.4,0,90.5
			C182.4,165.5,192.4,165.5,192.4,159L192.4,159z"/>
	</g>
</g>
<g>
	<g>
		<path fill="#27AAE1" d="M192.8,73.5c14,0,27.9,0,41.9,0c6.4,0,6.4-10,0-10c-14,0-27.9,0-41.9,0C186.4,63.5,186.4,73.5,192.8,73.5
			L192.8,73.5z"/>
	</g>
</g>
<g>
	<g>
		<path fill="#27AAE1" d="M232,73.5c5.7,0,11.5,0,17.2,0c6.4,0,6.4-10,0-10c-5.7,0-11.5,0-17.2,0C225.6,63.5,225.6,73.5,232,73.5
			L232,73.5z"/>
	</g>
</g>
<g>
	<g>
		<path fill="#27AAE1" d="M247.3,68.5c0,27.4,0,54.7,0,82.1c0,6.4,10,6.4,10,0c0-27.4,0-54.7,0-82.1
			C257.3,62.1,247.3,62.1,247.3,68.5L247.3,68.5z"/>
	</g>
</g>
<g>
	<g>
		<path fill="#27AAE1" d="M218.9,18.5c0,44.1,0,88.3,0,132.4c0,6.4,10,6.4,10,0c0-44.1,0-88.3,0-132.4
			C228.9,12.1,218.9,12,218.9,18.5L218.9,18.5z"/>
	</g>
</g>
<g>
	<g>
		<path fill="#27AAE1" d="M226.6,155.9c8.1,0,16.2,0,24.3,0c6.4,0,6.4-10,0-10c-8.1,0-16.2,0-24.3,0
			C220.2,145.9,220.2,155.9,226.6,155.9L226.6,155.9z"/>
	</g>
</g>
<g>
	<g>
		<path fill="#BCBEC0" d="M276.2,155c0-27.8,0-55.7,0-83.5c0-6.4-10-6.4-10,0c0,27.8,0,55.7,0,83.5
			C266.2,161.4,276.2,161.4,276.2,155L276.2,155z"/>
	</g>
</g>
<g>
	<g>
		<path fill="#BCBEC0" d="M271.2,76.2c10.8,0,21.6,0,32.4,0c6.4,0,6.4-10,0-10c-10.8,0-21.6,0-32.4,0
			C264.8,66.2,264.8,76.2,271.2,76.2L271.2,76.2z"/>
	</g>
</g>
<g>
	<g>
		<path fill="#BCBEC0" d="M302.3,76.5c6.8,0,13.5,0,20.3,0c6.4,0,6.4-10,0-10c-6.8,0-13.5,0-20.3,0
			C295.9,66.5,295.8,76.5,302.3,76.5L302.3,76.5z"/>
	</g>
</g>
<g>
	<g>
		<path fill="#BCBEC0" d="M318.9,72.5c0,17.6,0,35.1,0,52.7c0,6.4,10,6.4,10,0c0-17.6,0-35.1,0-52.7
			C328.9,66.1,318.9,66.1,318.9,72.5L318.9,72.5z"/>
	</g>
</g>
<g>
	<g>
		<path fill="#BCBEC0" d="M318.9,123.9c0,9.9,0,19.8,0,29.7c0,6.4,10,6.4,10,0c0-9.9,0-19.8,0-29.7
			C328.9,117.5,318.9,117.4,318.9,123.9L318.9,123.9z"/>
	</g>
</g>
<g>
	<g>
		<path fill="#BCBEC0" d="M321.2,151.3c-8.1,0-16.2,0-24.3,0c-6.4,0-6.4,10,0,10c8.1,0,16.2,0,24.3,0
			C327.6,161.3,327.7,151.3,321.2,151.3L321.2,151.3z"/>
	</g>
</g>
<g>
	<g>
		<path fill="#BCBEC0" d="M300.5,156.3c0-31.5,0-63.1,0-94.6c-1.7,1.7-3.3,3.3-5,5c15.8,0.1,31.5,0.2,47.3,0.4c-1.7-1.7-3.3-3.3-5-5
			c0,34.6,0,69.1,0,103.7c0,6.4,10,6.4,10,0c0-34.6,0-69.1,0-103.7c0-2.7-2.3-5-5-5c-15.8-0.1-31.5-0.2-47.3-0.4c-2.7,0-5,2.3-5,5
			c0,31.5,0,63.1,0,94.6C290.5,162.8,300.5,162.8,300.5,156.3L300.5,156.3z"/>
	</g>
</g>
<g>
	<g>
		<path fill="#BCBEC0" d="M342.9,164.8c-39.2-0.1-78.4-3.9-117.6-4c-6.4,0-6.4,10,0,10c39.2,0.1,78.4,3.9,117.6,4
			C349.3,174.8,349.3,164.8,342.9,164.8L342.9,164.8z"/>
	</g>
</g>
<g>
	<g>
		<path fill="#A7A9AC" d="M220.6,166.1c0.1,4.9,0.9,9.7,1,14.5c0.1,6.4,10.1,6.4,10,0c-0.1-4.9-0.9-9.7-1-14.5
			C230.5,159.7,220.5,159.7,220.6,166.1L220.6,166.1z"/>
	</g>
</g>
<g>
	<g>
		<path fill="#BCBEC0" d="M229,186c22.1,0,44.2,0,66.3,0c6.4,0,6.4-10,0-10c-0.5,0-1,0-1.5,0c0,3.3,0,6.7,0,10c16.4,0,32.7,0,49.1,0
			c6.4,0,6.4-10,0-10c-16.4,0-32.7,0-49.1,0c-6.4,0-6.4,10,0,10c0.5,0,1,0,1.5,0c6.4,0,6.4-10,0-10c-22.1,0-44.2,0-66.3,0
			C222.5,176,222.5,186,229,186L229,186z"/>
	</g>
</g>
<g>
	<g>
		<path fill="#BCBEC0" d="M363.7,153.6c0-28.2,0-56.3,0-84.5c0-6.4-10-6.4-10,0c0,28.2,0,56.3,0,84.5
			C353.7,160.1,363.7,160.1,363.7,153.6L363.7,153.6z"/>
	</g>
</g>
<g>
	<g>
		<path fill="#BCBEC0" d="M360.4,73.5c8.8,0,17.6,0,26.4,0c6.4,0,6.4-10,0-10c-8.8,0-17.6,0-26.4,0C354,63.5,354,73.5,360.4,73.5
			L360.4,73.5z"/>
	</g>
</g>
<g>
	<g>
		<path fill="#BCBEC0" d="M382.4,68.9c0,26.6,0,53.2,0,79.7c0,6.4,10,6.4,10,0c0-26.6,0-53.2,0-79.7
			C392.4,62.5,382.4,62.4,382.4,68.9L382.4,68.9z"/>
	</g>
</g>
<g>
	<g>
		<path fill="#BCBEC0" d="M388.8,89.7c6.3,0,12.6,0,18.9,0c6.4,0,6.4-10,0-10c-6.3,0-12.6,0-18.9,0
			C382.3,79.7,382.3,89.7,388.8,89.7L388.8,89.7z"/>
	</g>
</g>
<g>
	<g>
		<path fill="#BCBEC0" d="M404,84.7c0,22.1,0,44.1,0,66.2c0,6.4,10,6.4,10,0c0-22.1,0-44.1,0-66.2C414,78.3,404,78.3,404,84.7
			L404,84.7z"/>
	</g>
</g>
<g>
	<g>
		<path fill="#BCBEC0" d="M409,157.3c8.1,0,16.2,0,24.3,0c6.4,0,6.4-10,0-10c-8.1,0-16.2,0-24.3,0
			C402.6,147.3,402.6,157.3,409,157.3L409,157.3z"/>
	</g>
</g>
<g>
	<g>
		<path fill="#BCBEC0" d="M438.4,152.3c0-30.2,0-60.4,0-90.5c0-6.4-10-6.4-10,0c0,30.2,0,60.4,0,90.5
			C428.4,158.7,438.4,158.7,438.4,152.3L438.4,152.3z"/>
	</g>
</g>
<g>
	<g>
		<path fill="#BCBEC0" d="M404,37.4c0,3.6,0,7.2,0,10.8c0,6.4,10,6.4,10,0c0-3.6,0-7.2,0-10.8C414,31,404,31,404,37.4L404,37.4z"/>
	</g>
</g>
<g>
	<g>
		<path fill="#BCBEC0" d="M409,53.9c8.1,0,16.2,0,24.3,0c6.4,0,6.4-10,0-10c-8.1,0-16.2,0-24.3,0C402.6,43.9,402.6,53.9,409,53.9
			L409,53.9z"/>
	</g>
</g>
<g>
	<g>
		<path fill="#BCBEC0" d="M439.7,48.9c0-7.2,0-14.4,0-21.6c0-6.4-10-6.4-10,0c0,7.2,0,14.4,0,21.6C429.7,55.4,439.7,55.4,439.7,48.9
			L439.7,48.9z"/>
	</g>
</g>
<rect x="466.2" y="-150.9" fill="#FFFFFF" stroke="#1C75BC" stroke-width="4" stroke-miterlimit="10" width="64" height="124.4"/>
<line fill="none" stroke="#1C75BC" stroke-width="4" stroke-miterlimit="10" x1="476.9" y1="-57.6" x2="519.6" y2="-57.6"/>
<line fill="none" stroke="#1C75BC" stroke-width="4" stroke-miterlimit="10" x1="476.9" y1="-44.9" x2="519.6" y2="-44.9"/>
<line fill="none" stroke="#1C75BC" stroke-width="4" stroke-miterlimit="10" x1="476.9" y1="-81" x2="519.6" y2="-81"/>
<line fill="none" stroke="#1C75BC" stroke-width="4" stroke-miterlimit="10" x1="476.9" y1="-68.4" x2="519.6" y2="-68.4"/>
<line fill="none" stroke="#1C75BC" stroke-width="4" stroke-miterlimit="10" x1="476.9" y1="-103.8" x2="519.6" y2="-103.8"/>
<line fill="none" stroke="#1C75BC" stroke-width="4" stroke-miterlimit="10" x1="476.9" y1="-91.2" x2="519.6" y2="-91.2"/>
<line fill="none" stroke="#1C75BC" stroke-width="4" stroke-miterlimit="10" x1="476.9" y1="-127.9" x2="519.6" y2="-127.9"/>
<line fill="none" stroke="#1C75BC" stroke-width="4" stroke-miterlimit="10" x1="476.9" y1="-115.2" x2="519.6" y2="-115.2"/>
<rect x="538.7" y="-128.9" fill="#1C75BC" stroke="#1C75BC" stroke-width="4" stroke-miterlimit="10" width="81.3" height="27.5"/>
<line fill="none" stroke="#1C75BC" stroke-width="4" stroke-miterlimit="10" x1="536.7" y1="-91" x2="620.1" y2="-91"/>
<line fill="none" stroke="#1C75BC" stroke-width="4" stroke-miterlimit="10" x1="536.7" y1="-73" x2="620.1" y2="-73"/>
<line fill="none" stroke="#1C75BC" stroke-width="4" stroke-miterlimit="10" x1="536.7" y1="-54" x2="620.1" y2="-54"/>
</svg>
