<?xml version="1.0" encoding="utf-8"?>
<!-- Generator: Adobe Illustrator 18.1.1, SVG Export Plug-In . SVG Version: 6.00 Build 0)  -->
<svg version="1.1" id="Layer_1" xmlns="http://www.w3.org/2000/svg" xmlns:xlink="http://www.w3.org/1999/xlink" x="0px" y="0px"
	 viewBox="0 0 603 146" enable-background="new 0 0 603 146" xml:space="preserve">
<g>
	<g>
		<path fill="#2E3192" d="M51.6,128.2c0-31.7,0-63.4,0-95c0-6.4-10-6.4-10,0c0,31.7,0,63.4,0,95C41.6,134.6,51.6,134.6,51.6,128.2
			L51.6,128.2z"/>
	</g>
</g>
<g>
	<g>
		<path fill="#2E3192" d="M47.2,36.8c11.7,0,23.4,0,35.1,0c6.4,0,6.4-10,0-10c-11.7,0-23.4,0-35.1,0C40.8,26.8,40.8,36.8,47.2,36.8
			L47.2,36.8z"/>
	</g>
</g>
<g>
	<g>
		<path fill="#2E3192" d="M77.6,32.1c0,27.6,0,55.2,0,82.8c0,6.4,10,6.4,10,0c0-27.6,0-55.2,0-82.8C87.6,25.6,77.6,25.6,77.6,32.1
			L77.6,32.1z"/>
	</g>
</g>
<g>
	<g>
		<path fill="#2E3192" d="M72.1,121.2c9.3,0,18.7,0,28,0c6.4,0,6.4-10,0-10c-9.3,0-18.7,0-28,0C65.7,111.2,65.7,121.2,72.1,121.2
			L72.1,121.2z"/>
	</g>
</g>
<g>
	<g>
		<path fill="#2E3192" d="M101.5,117.2c6.4,0,6.4-10,0-10C95.1,107.2,95.1,117.2,101.5,117.2L101.5,117.2z"/>
	</g>
</g>
<g>
	<g>
		<path fill="#2E3192" d="M106.5,114.9c0-24,0-47.9,0-71.9c0-6.4-10-6.4-10,0c0,24,0,47.9,0,71.9
			C96.5,121.3,106.5,121.3,106.5,114.9L106.5,114.9z"/>
	</g>
</g>
<g>
	<g>
		<path fill="#2E3192" d="M83.2,22.6c10.4,0,20.7,0,31.1,0c6.4,0,6.4-10,0-10c-10.4,0-20.7,0-31.1,0C76.8,12.6,76.8,22.6,83.2,22.6
			L83.2,22.6z"/>
	</g>
</g>
<g>
	<g>
		<path fill="#2E3192" d="M119.3,118.9c0-32.9,0-65.8,0-98.6c0-6.4-10-6.4-10,0c0,32.9,0,65.8,0,98.6
			C109.3,125.4,119.3,125.4,119.3,118.9L119.3,118.9z"/>
	</g>
</g>
<g>
	<g>
		<path fill="#2E3192" d="M131.5,117.6c0-32.4,0-64.9,0-97.3c0-6.4-10-6.4-10,0c0,32.4,0,64.9,0,97.3
			C121.5,124,131.5,124,131.5,117.6L131.5,117.6z"/>
	</g>
</g>
<g>
	<g>
		<path fill="#2E3192" d="M128.5,25.3c6.4,0,6.4-10,0-10C122.1,15.3,122.1,25.3,128.5,25.3L128.5,25.3z"/>
	</g>
</g>
<g>
	<g>
		<path fill="#2E3192" d="M128.5,25.3c15.2,0,30.4,0,45.6,0c6.4,0,6.4-10,0-10c-15.2,0-30.4,0-45.6,0
			C122.1,15.3,122.1,25.3,128.5,25.3L128.5,25.3z"/>
	</g>
</g>
<g>
	<g>
		<path fill="#2E3192" d="M169.5,21.6c0,33.1,0,66.2,0,99.2c0,6.4,10,6.4,10,0c0-33.1,0-66.2,0-99.2
			C179.5,15.2,169.5,15.2,169.5,21.6L169.5,21.6z"/>
	</g>
</g>
<g>
	<g>
		<path fill="#2E3192" d="M170.4,65.3c-9.5,0-18.9,0-28.4,0c-6.4,0-6.4,10,0,10c9.5,0,18.9,0,28.4,0
			C176.9,75.3,176.9,65.3,170.4,65.3L170.4,65.3z"/>
	</g>
</g>
<g>
	<g>
		<path fill="#2E3192" d="M135.7,70.3c0,17,0,34,0,51c0,6.4,10,6.4,10,0c0-0.3,0-0.6,0-1c0-6.4-10-6.4-10,0c0,0.3,0,0.6,0,1
			c0,6.4,10,6.4,10,0c0-17,0-34,0-51C145.7,63.9,135.7,63.9,135.7,70.3L135.7,70.3z"/>
	</g>
</g>
<g>
	<g>
		<path fill="#2E3192" d="M141.4,126.4c10.5,0,20.9,0,31.4,0c6.4,0,6.4-10,0-10c-10.5,0-20.9,0-31.4,0
			C135,116.4,135,126.4,141.4,126.4L141.4,126.4z"/>
	</g>
</g>
<g>
	<g>
		<path fill="#2E3192" d="M197.3,118.9c0-28.8,0-57.7,0-86.5c0-6.4-10-6.4-10,0c0,28.8,0,57.7,0,86.5
			C187.3,125.4,197.3,125.4,197.3,118.9L197.3,118.9z"/>
	</g>
</g>
<g>
	<g>
		<path fill="#2E3192" d="M192,37.1c10.4,0,20.7,0,31.1,0c6.4,0,6.4-10,0-10c-10.4,0-20.7,0-31.1,0C185.6,27.1,185.6,37.1,192,37.1
			L192,37.1z"/>
	</g>
</g>
<g>
	<g>
		<path fill="#2E3192" d="M215,37.5c7.2,0,14.4,0,21.6,0c6.4,0,6.4-10,0-10c-7.2,0-14.4,0-21.6,0C208.6,27.5,208.6,37.5,215,37.5
			L215,37.5z"/>
	</g>
</g>
<g>
	<g>
		<path fill="#2E3192" d="M233,32.5c0,30.6,0,61.3,0,91.9c0,6.4,10,6.4,10,0c0-30.6,0-61.3,0-91.9C243,26,233,26,233,32.5L233,32.5z
			"/>
	</g>
</g>
<g>
	<g>
		<path fill="#2E3192" d="M237.7,120.1c-7.6,0-15.1,0-22.7,0c-6.4,0-6.4,10,0,10c7.6,0,15.1,0,22.7,0
			C244.1,130.1,244.1,120.1,237.7,120.1L237.7,120.1z"/>
	</g>
</g>
<g>
	<g>
		<path fill="#2E3192" d="M220,123c0-30.2,0-60.4,0-90.5c0-6.4-10-6.4-10,0c0,30.2,0,60.4,0,90.5C210,129.4,220,129.4,220,123
			L220,123z"/>
	</g>
</g>
<g>
	<g>
		<path fill="#2E3192" d="M220.4,37.5c14,0,27.9,0,41.9,0c6.4,0,6.4-10,0-10c-14,0-27.9,0-41.9,0C214,27.5,214,37.5,220.4,37.5
			L220.4,37.5z"/>
	</g>
</g>
<g>
	<g>
		<path fill="#2E3192" d="M259.6,37.5c5.7,0,11.5,0,17.2,0c6.4,0,6.4-10,0-10c-5.7,0-11.5,0-17.2,0
			C253.2,27.5,253.2,37.5,259.6,37.5L259.6,37.5z"/>
	</g>
</g>
<g>
	<g>
		<path fill="#2E3192" d="M274.9,32.5c0,27.4,0,54.7,0,82.1c0,6.4,10,6.4,10,0c0-27.4,0-54.7,0-82.1
			C284.9,26.1,274.9,26.1,274.9,32.5L274.9,32.5z"/>
	</g>
</g>
<g>
	<g>
		<path fill="#2E3192" d="M246.5-17.5c0,44.1,0,88.3,0,132.4c0,6.4,10,6.4,10,0c0-44.1,0-88.3,0-132.4C256.5-24,246.5-24,246.5-17.5
			L246.5-17.5z"/>
	</g>
</g>
<g>
	<g>
		<path fill="#2E3192" d="M254.2,119.9c8.1,0,16.2,0,24.3,0c6.4,0,6.4-10,0-10c-8.1,0-16.2,0-24.3,0
			C247.8,109.9,247.8,119.9,254.2,119.9L254.2,119.9z"/>
	</g>
</g>
<g>
	<g>
		<path fill="#A97C50" d="M303.8,118.9c0-27.8,0-55.7,0-83.5c0-6.4-10-6.4-10,0c0,27.8,0,55.7,0,83.5
			C293.8,125.4,303.8,125.4,303.8,118.9L303.8,118.9z"/>
	</g>
</g>
<g>
	<g>
		<path fill="#A97C50" d="M298.8,40.2c10.8,0,21.6,0,32.4,0c6.4,0,6.4-10,0-10c-10.8,0-21.6,0-32.4,0
			C292.4,30.2,292.4,40.2,298.8,40.2L298.8,40.2z"/>
	</g>
</g>
<g>
	<g>
		<path fill="#A97C50" d="M329.9,40.5c6.8,0,13.5,0,20.3,0c6.4,0,6.4-10,0-10c-6.8,0-13.5,0-20.3,0
			C323.5,30.5,323.4,40.5,329.9,40.5L329.9,40.5z"/>
	</g>
</g>
<g>
	<g>
		<path fill="#A97C50" d="M346.5,36.5c0,17.6,0,35.1,0,52.7c0,6.4,10,6.4,10,0c0-17.6,0-35.1,0-52.7
			C356.5,30.1,346.5,30.1,346.5,36.5L346.5,36.5z"/>
	</g>
</g>
<g>
	<g>
		<path fill="#A97C50" d="M346.5,87.9c0,9.9,0,19.8,0,29.7c0,6.4,10,6.4,10,0c0-9.9,0-19.8,0-29.7C356.5,81.4,346.5,81.4,346.5,87.9
			L346.5,87.9z"/>
	</g>
</g>
<g>
	<g>
		<path fill="#A97C50" d="M348.8,115.3c-8.1,0-16.2,0-24.3,0c-6.4,0-6.4,10,0,10c8.1,0,16.2,0,24.3,0
			C355.2,125.3,355.2,115.3,348.8,115.3L348.8,115.3z"/>
	</g>
</g>
<g>
	<g>
		<path fill="#A97C50" d="M328.1,120.3c0-31.5,0-63.1,0-94.6c-1.7,1.7-3.3,3.3-5,5c15.8,0.1,31.5,0.2,47.3,0.4c-1.7-1.7-3.3-3.3-5-5
			c0,34.6,0,69.1,0,103.7c0,6.4,10,6.4,10,0c0-34.6,0-69.1,0-103.7c0-2.7-2.3-5-5-5c-15.8-0.1-31.5-0.2-47.3-0.4c-2.7,0-5,2.3-5,5
			c0,31.5,0,63.1,0,94.6C318.1,126.7,328.1,126.7,328.1,120.3L328.1,120.3z"/>
	</g>
</g>
<g>
	<g>
		<path fill="#A97C50" d="M370.5,128.8c-39.2-0.1-78.4-3.9-117.6-4c-6.4,0-6.4,10,0,10c39.2,0.1,78.4,3.9,117.6,4
			C376.9,138.8,376.9,128.8,370.5,128.8L370.5,128.8z"/>
	</g>
</g>
<g>
	<g>
		<path fill="#A97C50" d="M248.2,130.1c0.1,4.9,0.9,9.7,1,14.5c0.1,6.4,10.1,6.4,10,0c-0.1-4.9-0.9-9.7-1-14.5
			C258.1,123.7,248.1,123.7,248.2,130.1L248.2,130.1z"/>
	</g>
</g>
<g>
	<g>
		<path fill="#A97C50" d="M256.6,150c22.1,0,44.2,0,66.3,0c6.4,0,6.4-10,0-10c-0.5,0-1,0-1.5,0c0,3.3,0,6.7,0,10
			c16.4,0,32.7,0,49.1,0c6.4,0,6.4-10,0-10c-16.4,0-32.7,0-49.1,0c-6.4,0-6.4,10,0,10c0.5,0,1,0,1.5,0c6.4,0,6.4-10,0-10
			c-22.1,0-44.2,0-66.3,0C250.1,140,250.1,150,256.6,150L256.6,150z"/>
	</g>
</g>
<g>
	<g>
		<path fill="#A97C50" d="M391.3,117.6c0-28.2,0-56.3,0-84.5c0-6.4-10-6.4-10,0c0,28.2,0,56.3,0,84.5
			C381.3,124,391.3,124,391.3,117.6L391.3,117.6z"/>
	</g>
</g>
<g>
	<g>
		<path fill="#A97C50" d="M388,37.5c8.8,0,17.6,0,26.4,0c6.4,0,6.4-10,0-10c-8.8,0-17.6,0-26.4,0C381.6,27.5,381.5,37.5,388,37.5
			L388,37.5z"/>
	</g>
</g>
<g>
	<g>
		<path fill="#A97C50" d="M410,32.9c0,26.6,0,53.2,0,79.7c0,6.4,10,6.4,10,0c0-26.6,0-53.2,0-79.7C420,26.4,410,26.4,410,32.9
			L410,32.9z"/>
	</g>
</g>
<g>
	<g>
		<path fill="#A97C50" d="M416.4,53.7c6.3,0,12.6,0,18.9,0c6.4,0,6.4-10,0-10c-6.3,0-12.6,0-18.9,0
			C409.9,43.7,409.9,53.7,416.4,53.7L416.4,53.7z"/>
	</g>
</g>
<g>
	<g>
		<path fill="#A97C50" d="M431.6,48.7c0,22.1,0,44.1,0,66.2c0,6.4,10,6.4,10,0c0-22.1,0-44.1,0-66.2
			C441.6,42.2,431.6,42.2,431.6,48.7L431.6,48.7z"/>
	</g>
</g>
<g>
	<g>
		<path fill="#A97C50" d="M436.6,121.2c8.1,0,16.2,0,24.3,0c6.4,0,6.4-10,0-10c-8.1,0-16.2,0-24.3,0
			C430.2,111.2,430.2,121.2,436.6,121.2L436.6,121.2z"/>
	</g>
</g>
<g>
	<g>
		<path fill="#A97C50" d="M466,116.2c0-30.2,0-60.4,0-90.5c0-6.4-10-6.4-10,0c0,30.2,0,60.4,0,90.5C456,122.7,466,122.7,466,116.2
			L466,116.2z"/>
	</g>
</g>
<g>
	<g>
		<path fill="#A97C50" d="M431.6,1.4c0,3.6,0,7.2,0,10.8c0,6.4,10,6.4,10,0c0-3.6,0-7.2,0-10.8C441.6-5.1,431.6-5.1,431.6,1.4
			L431.6,1.4z"/>
	</g>
</g>
<g>
	<g>
		<path fill="#A97C50" d="M436.6,17.9c8.1,0,16.2,0,24.3,0c6.4,0,6.4-10,0-10c-8.1,0-16.2,0-24.3,0C430.2,7.9,430.2,17.9,436.6,17.9
			L436.6,17.9z"/>
	</g>
</g>
<g>
	<g>
		<path fill="#A97C50" d="M467.3,12.9c0-7.2,0-14.4,0-21.6c0-6.4-10-6.4-10,0c0,7.2,0,14.4,0,21.6C457.3,19.3,467.3,19.3,467.3,12.9
			L467.3,12.9z"/>
	</g>
</g>
</svg>
